<svg xmlns="http://www.w3.org/2000/svg" viewBox="0 0 64 64" aria-labelledby="title"
aria-describedby="desc" role="img" xmlns:xlink="http://www.w3.org/1999/xlink">
  <title>Apple</title>
  <desc>A solid styled icon from Orion Icon Library.</desc>
  <path data-name="layer2"
  d="M43 17c-2.9 0-5.1 1.3-7.8 1.8C35.1 9.3 29.1 5 23.2 5a2 2 0 0 0 0 4c3.8 0 7.9 2.6 8 9.8-2.4-.5-4.5-1.8-10.2-1.8S7 23.8 7 35s8.2 26 16.9 26c5.3 0 5.7-4 8.6-4s5.2 4 8.7 4S57 51.5 57 35 46.6 17 43 17z"
  fill="#ffffff"></path>
  <path data-name="layer1" d="M49.2 3c-10 0-12 6-12 12 10 0 12-6 12-12z"
  fill="#ffffff"></path>
</svg>