<svg xmlns="http://www.w3.org/2000/svg" viewBox="0 0 64 64" aria-labelledby="title"
aria-describedby="desc" role="img" xmlns:xlink="http://www.w3.org/1999/xlink">
  <title>Glazed Donut</title>
  <desc>A solid styled icon from Orion Icon Library.</desc>
  <path data-name="layer1"
  d="M32 2a30 30 0 1 0 26.5 44l.2-.3A30 30 0 0 0 32 2zm14.8 31.9a2 2 0 0 1 2-2 2 2 0 0 1 2 2v3.7a2 2 0 0 1-2 2 2 2 0 0 1-2-2zm-8.7-16.4l3.7-3.7a2 2 0 0 1 2.8 2.8l-3.7 3.7a2 2 0 0 1-2.8-2.8zM42 31.9a10 10 0 1 1-10-10 10 10 0 0 1 10 10zM26.4 9.5h7.5a2 2 0 0 1 0 4h-7.5a2 2 0 0 1 0-4zm-8.9 4.3a2 2 0 0 1 2.8 0l3.7 3.7a2 2 0 1 1-2.8 2.8l-3.7-3.7a2 2 0 0 1 0-2.8zm-7.4 17.7a2 2 0 0 1 0-2.8l3.7-3.7a2 2 0 0 1 2.8 2.8l-3.7 3.7a2 2 0 0 1-2.8 0zm1.3 6.1a2 2 0 0 1 2-2h3.7a2 2 0 0 1 0 4h-3.8a2 2 0 0 1-2-2zM32 58a25.9 25.9 0 0 1-17.7-6.9 17.3 17.3 0 0 0 2.6-4.9v-.3a1.3 1.3 0 0 1 1.5-.5c.2.1.5.2.3 1.1a6.6 6.6 0 0 0 1.8 6.9 6.2 6.2 0 0 0 4 1.5 5.8 5.8 0 0 0 2.3-.5 16.2 16.2 0 0 0 2.2-1.2 2.6 2.6 0 0 1 2.5-.5c1.8.3 6.7 1.2 9.4-3.2h.1l.3.2a9.9 9.9 0 0 0 3.1 1.2c2.2.4 3.6-1.2 4.7-2.4s2.3-2.6 4.5-2.3A26 26 0 0 1 32 58zm22.3-30.7a2 2 0 0 1-1.8 1.1l-.9-.2-3.7-1.9a2 2 0 1 1 1.8-3.6l3.7 1.9a2 2 0 0 1 .9 2.7z"
  fill="#ffffff"></path>
</svg>