<svg xmlns="http://www.w3.org/2000/svg" viewBox="0 0 64 64" aria-labelledby="title"
aria-describedby="desc" role="img" xmlns:xlink="http://www.w3.org/1999/xlink">
  <title>Fish</title>
  <desc>A solid styled icon from Orion Icon Library.</desc>
  <path data-name="layer2"
  d="M62.9 33.7C60.7 26.9 49.8 17 36 17a28.7 28.7 0 0 0-24 12.9c-4.1-6.9-9.4-8.8-9.7-8.8A1 1 0 0 0 1 22v20a1 1 0 0 0 1.3.9C2.6 42.9 8 41 12 34c3.7 5.3 13.3 13 24 13s24.8-6.3 26.9-12.7a1 1 0 0 0 0-.6zM49 34a3 3 0 1 1 3-3 3 3 0 0 1-3 3z"
  fill="#ffffff"></path>
  <path data-name="layer1" d="M41.5 13.5l-8.8-8.2A1 1 0 0 0 31 6v7.4a32.8 32.8 0 0 1 10.5.1zM29 50.1V58a1 1 0 0 0 .6.9h.4l.6-.2L41 50.6a38.4 38.4 0 0 1-5 .4 28.4 28.4 0 0 1-7-.9z"
  fill="#ffffff"></path>
</svg>