<svg xmlns="http://www.w3.org/2000/svg" viewBox="0 0 64 64" aria-labelledby="title"
aria-describedby="desc" role="img" xmlns:xlink="http://www.w3.org/1999/xlink">
  <title>Tea Mug</title>
  <desc>A solid styled icon from Orion Icon Library.</desc>
  <path data-name="layer2"
  d="M53 51H3a2 2 0 0 0 0 4h50a2 2 0 0 0 0-4z" fill="#ffffff"></path>
  <path data-name="layer1" d="M52.8 13.1C53 10.5 53 9 53 9H3c0 18.8 6.3 31.3 10.9 38h28.4a47.5 47.5 0 0 0 4.5-8.2C58 33.8 63 26.3 63 21.1c0-2.8-1.4-7.4-10.2-8zm-3.9 20.1A87.4 87.4 0 0 0 52.4 17c4.4.3 6.6 1.6 6.6 4s-2.8 8-10.1 12.2z"
  fill="#ffffff"></path>
</svg>