<?xml version="1.0" encoding="UTF-8" standalone="no"?><!DOCTYPE svg PUBLIC "-//W3C//DTD SVG 1.1//EN" "http://www.w3.org/Graphics/SVG/1.1/DTD/svg11.dtd"><svg width="100%" height="100%" viewBox="0 0 193 42" version="1.1" xmlns="http://www.w3.org/2000/svg" xmlns:xlink="http://www.w3.org/1999/xlink" xml:space="preserve" xmlns:serif="http://www.serif.com/" style="fill-rule:evenodd;clip-rule:evenodd;stroke-linejoin:round;stroke-miterlimit:1.41421;"><path d="M50.449,15.757l-1.937,-6.173l-0.884,0l-1.928,6.173l0.707,0l0.549,-1.848l2.22,0l0.548,1.848l0.725,0Zm-1.433,-2.431l-1.892,0l0.698,-2.344l0.195,-0.77l0.088,0l0.195,0.77l0.716,2.344Z" style="fill-rule:nonzero;"/><path d="M53.599,12.591l1.777,-3.007l-0.778,0l-1.389,2.423l-0.088,0l-1.344,-2.423l-0.823,0l1.76,3.034l-1.822,3.139l0.779,0l1.423,-2.547l0.089,0l1.415,2.547l0.822,0l-1.821,-3.166Z" style="fill-rule:nonzero;"/><path d="M58.348,15.757l0,-0.582l-0.778,0l0,-5.008l0.778,0l0,-0.583l-2.263,0l0,0.583l0.778,0l0,5.008l-0.778,0l0,0.582l2.263,0Z" style="fill-rule:nonzero;"/><path d="M61.639,15.863c1.496,0 2.362,-0.989 2.362,-3.192c0,-2.203 -0.866,-3.193 -2.362,-3.193c-1.495,0 -2.361,0.99 -2.361,3.193c0,2.203 0.866,3.192 2.361,3.192Zm0,-0.627c-1.017,0 -1.601,-0.734 -1.601,-1.875l0,-1.38c0,-1.142 0.584,-1.876 1.601,-1.876c1.018,0 1.602,0.734 1.602,1.876l0,1.38c0,1.141 -0.584,1.875 -1.602,1.875Z" style="fill-rule:nonzero;"/><path d="M69.504,15.757l0.689,0l0,-6.173l-0.937,0l-1.115,2.397l-0.416,1.141l-0.071,0l-0.415,-1.141l-1.115,-2.397l-0.937,0l0,6.173l0.689,0l0,-4.236l-0.062,-1.044l0.088,0l0.461,1.044l1.327,2.724l1.327,-2.724l0.46,-1.061l0.089,0l-0.062,1.061l0,4.236Z" style="fill-rule:nonzero;"/><path d="M73.528,15.757l1.937,0c1.425,0 2.238,-0.936 2.238,-3.086c0,-2.15 -0.813,-3.087 -2.238,-3.087l-1.937,0l0,6.173Zm0.707,-0.618l0,-4.937l1.23,0c0.885,0 1.478,0.637 1.478,1.779l0,1.38c0,1.141 -0.593,1.778 -1.478,1.778l-1.23,0Z" style="fill-rule:nonzero;"/><path d="M82.311,15.757l0,-0.618l-2.707,0l0,-2.195l2.539,0l0,-0.618l-2.539,0l0,-2.124l2.707,0l0,-0.618l-3.413,0l0,6.173l3.413,0Z" style="fill-rule:nonzero;"/><path d="M85.125,15.863c1.203,0 1.945,-0.627 1.945,-1.786c0,-1.017 -0.433,-1.495 -1.583,-1.778l-0.46,-0.115c-0.717,-0.177 -1.026,-0.451 -1.026,-1.044c0,-0.743 0.407,-1.053 1.159,-1.053c0.664,0 1.035,0.257 1.354,0.752l0.521,-0.371c-0.433,-0.681 -0.99,-0.99 -1.848,-0.99c-1.133,0 -1.875,0.565 -1.875,1.662c0,0.956 0.503,1.442 1.582,1.708l0.461,0.115c0.761,0.185 1.026,0.477 1.026,1.114c0,0.779 -0.433,1.177 -1.256,1.177c-0.638,0 -1.098,-0.318 -1.469,-0.867l-0.512,0.425c0.433,0.654 1.096,1.051 1.981,1.051Z" style="fill-rule:nonzero;"/><path d="M90.193,15.757l0,-0.582l-0.779,0l0,-5.008l0.779,0l0,-0.583l-2.264,0l0,0.583l0.779,0l0,5.008l-0.779,0l0,0.582l2.264,0Z" style="fill-rule:nonzero;"/><path d="M94.988,15.757l0.654,0l0,-3.157l-1.91,0l0,0.619l1.221,0l0,0.672c0,0.85 -0.664,1.345 -1.469,1.345c-1.018,0 -1.602,-0.734 -1.602,-1.876l0,-1.379c0,-1.142 0.584,-1.876 1.602,-1.876c0.761,0 1.239,0.389 1.478,1.035l0.582,-0.354c-0.362,-0.805 -0.981,-1.308 -2.06,-1.308c-1.496,0 -2.361,0.99 -2.361,3.193c0,2.203 0.901,3.192 2.246,3.192c0.911,0 1.398,-0.415 1.531,-0.963l0.088,0l0,0.857Z" style="fill-rule:nonzero;"/><path d="M100.251,15.757l0.866,0l0,-6.173l-0.689,0l0,4.006l0.062,1.274l-0.088,0l-0.54,-1.274l-2.053,-4.006l-0.866,0l0,6.173l0.689,0l0,-4.006l-0.062,-1.274l0.088,0l0.54,1.274l2.053,4.006Z" style="fill-rule:nonzero;"/><path d="M106.027,15.863c1.203,0 1.945,-0.627 1.945,-1.786c0,-1.017 -0.432,-1.495 -1.582,-1.778l-0.46,-0.115c-0.717,-0.177 -1.027,-0.451 -1.027,-1.044c0,-0.743 0.407,-1.053 1.159,-1.053c0.664,0 1.036,0.257 1.354,0.752l0.521,-0.371c-0.433,-0.681 -0.99,-0.99 -1.848,-0.99c-1.133,0 -1.875,0.565 -1.875,1.662c0,0.956 0.503,1.442 1.583,1.708l0.46,0.115c0.761,0.185 1.027,0.477 1.027,1.114c0,0.779 -0.434,1.177 -1.257,1.177c-0.637,0 -1.097,-0.318 -1.468,-0.867l-0.513,0.425c0.433,0.654 1.096,1.051 1.981,1.051Z" style="fill-rule:nonzero;"/><path d="M111.024,15.757l0,-2.441l1.911,-3.732l-0.787,0l-1.424,2.936l-0.088,0l-1.424,-2.936l-0.805,0l1.911,3.732l0,2.441l0.706,0Z" style="fill-rule:nonzero;"/><path d="M115.173,15.863c1.204,0 1.946,-0.627 1.946,-1.786c0,-1.017 -0.433,-1.495 -1.583,-1.778l-0.46,-0.115c-0.717,-0.177 -1.027,-0.451 -1.027,-1.044c0,-0.743 0.407,-1.053 1.16,-1.053c0.663,0 1.035,0.257 1.353,0.752l0.522,-0.371c-0.433,-0.681 -0.99,-0.99 -1.849,-0.99c-1.133,0 -1.874,0.565 -1.874,1.662c0,0.956 0.503,1.442 1.582,1.708l0.46,0.115c0.761,0.185 1.027,0.477 1.027,1.114c0,0.779 -0.434,1.177 -1.257,1.177c-0.637,0 -1.097,-0.318 -1.468,-0.867l-0.513,0.425c0.433,0.654 1.096,1.051 1.981,1.051Z" style="fill-rule:nonzero;"/><path d="M121.772,10.202l0,-0.618l-4.192,0l0,0.618l1.743,0l0,5.555l0.706,0l0,-5.555l1.743,0Z" style="fill-rule:nonzero;"/><path d="M126.106,15.757l0,-0.618l-2.707,0l0,-2.195l2.539,0l0,-0.618l-2.539,0l0,-2.124l2.707,0l0,-0.618l-3.413,0l0,6.173l3.413,0Z" style="fill-rule:nonzero;"/><path d="M131.653,15.757l0.689,0l0,-6.173l-0.936,0l-1.115,2.397l-0.416,1.141l-0.071,0l-0.416,-1.141l-1.115,-2.397l-0.936,0l0,6.173l0.689,0l0,-4.236l-0.062,-1.044l0.088,0l0.46,1.044l1.327,2.724l1.328,-2.724l0.46,-1.061l0.088,0l-0.062,1.061l0,4.236Z" style="fill-rule:nonzero;"/><path d="M48.07,32.3l0,-4.279l2.638,0c2.073,0 3.183,-1.442 3.183,-3.648c0,-2.206 -1.11,-3.648 -3.183,-3.648l-5.008,0l0,11.575l2.37,0Zm0,-9.504l2.34,0c0.63,0 1.029,0.299 1.029,1.079l0,0.996c0,0.78 -0.399,1.079 -1.029,1.079l-2.34,0l0,-3.154Z" style="fill-rule:nonzero;"/><path d="M57.938,27.921l1.577,0l1.792,4.379l2.569,0l-2.022,-4.594c1.243,-0.464 1.906,-1.69 1.906,-3.383c0,-2.189 -1.111,-3.598 -3.183,-3.598l-5.009,0l0,11.575l2.37,0l0,-4.379Zm0,-1.971l0,-3.154l2.34,0c0.631,0 1.029,0.283 1.029,1.079l0,0.996c0,0.797 -0.398,1.079 -1.029,1.079l-2.34,0Z" style="fill-rule:nonzero;"/><path d="M72.849,32.3l0,-2.071l-4.794,0l0,-2.755l4.064,0l0,-2.055l-4.064,0l0,-2.623l4.794,0l0,-2.071l-7.163,0l0,11.575l7.163,0Z" style="fill-rule:nonzero;"/><path d="M78.174,32.499c2.637,0 4.079,-1.342 4.079,-3.796c0,-1.958 -0.912,-2.854 -3.183,-3.318l-1.062,-0.216c-0.814,-0.166 -1.162,-0.548 -1.162,-1.311c0,-0.879 0.464,-1.261 1.51,-1.261c0.963,0 1.66,0.332 2.24,1.046l1.524,-1.526c-0.862,-1.077 -2.071,-1.591 -3.731,-1.591c-2.554,0 -3.913,1.21 -3.913,3.448c0,1.925 0.994,3.003 3.117,3.401l1.062,0.199c0.846,0.166 1.228,0.598 1.228,1.394c0,0.979 -0.564,1.46 -1.66,1.46c-1.045,0 -1.957,-0.448 -2.604,-1.278l-1.524,1.526c0.994,1.227 2.32,1.823 4.079,1.823Z" style="fill-rule:nonzero;"/><path d="M87.229,32.499c2.638,0 4.079,-1.342 4.079,-3.796c0,-1.958 -0.911,-2.854 -3.183,-3.318l-1.062,-0.216c-0.813,-0.166 -1.162,-0.548 -1.162,-1.311c0,-0.879 0.465,-1.261 1.511,-1.261c0.962,0 1.659,0.332 2.239,1.046l1.525,-1.526c-0.862,-1.077 -2.072,-1.591 -3.731,-1.591c-2.554,0 -3.913,1.21 -3.913,3.448c0,1.925 0.994,3.003 3.116,3.401l1.063,0.199c0.846,0.166 1.228,0.598 1.228,1.394c0,0.979 -0.565,1.46 -1.66,1.46c-1.046,0 -1.957,-0.448 -2.604,-1.278l-1.525,1.526c0.995,1.227 2.321,1.823 4.079,1.823Z" style="fill-rule:nonzero;"/><path d="M93.002,20.725l0,7.198c0,3.25 1.077,4.576 4.162,4.576c3.085,0 4.162,-1.326 4.162,-4.576l0,-7.198l-2.37,0l0,7.514c0,1.525 -0.448,2.156 -1.792,2.156c-1.344,0 -1.792,-0.631 -1.792,-2.156l0,-7.514l-2.37,0Z" style="fill-rule:nonzero;"/><path d="M105.887,27.921l1.577,0l1.792,4.379l2.569,0l-2.022,-4.594c1.243,-0.464 1.906,-1.69 1.906,-3.383c0,-2.189 -1.111,-3.598 -3.183,-3.598l-5.008,0l0,11.575l2.369,0l0,-4.379Zm0,-1.971l0,-3.154l2.34,0c0.631,0 1.029,0.283 1.029,1.079l0,0.996c0,0.797 -0.398,1.079 -1.029,1.079l-2.34,0Z" style="fill-rule:nonzero;"/><path d="M120.798,32.3l0,-2.071l-4.794,0l0,-2.755l4.064,0l0,-2.055l-4.064,0l0,-2.623l4.794,0l0,-2.071l-7.163,0l0,11.575l7.163,0Z" style="fill-rule:nonzero;"/><g id="Main-Shape" serif:id="Main Shape"><path d="M35.38,35.295l-29.608,-4.174l4.227,-21.136l21.136,-4.227l4.245,29.537Zm-23.681,-23.611l-3.551,17.752l24.873,3.507l-3.565,-24.81l-17.757,3.551Z"/></g></svg>